<svg xmlns="http://www.w3.org/2000/svg" viewBox="0 0 64 64">
  <rect width="64" height="64" rx="12" fill="#DDEFF6"/>
  <path d="M6 33 L32 10 L58 33" fill="none" stroke="#E8762A" stroke-width="7.5" stroke-linecap="round" stroke-linejoin="round"/>
  <circle cx="32" cy="39" r="18" fill="#ffffff"/>
  <g fill="#186C85" transform="translate(32 38.5) scale(0.72) translate(-32 -38.5)">
    <circle cx="38.6" cy="23.4" r="3.9"/>
    <path d="M34.2 21.8c4.2 0 7.2 3.1 7.2 7.1 0 2.4-1.1 4.4-2.9 5.7 6.5 1.6 11.2 6.6 11.2 12.4 0 5.4-4.4 9.6-11.9 9.6-9.4 0-16.9-4.4-16.9-10.9 0-5 3.7-9.3 9.2-11-1.9-1.3-3.1-3.4-3.1-5.8 0-4 3-7.1 7.2-7.1z"/>
    <circle cx="24.4" cy="44.6" r="6.8" stroke="#ffffff" stroke-width="2.8"/>
  </g>
</svg>
